Meant to Be 2011 R5 XVID AC3 - Xtreme Encode







General


Complete name                            : Meant to Be 2011 R5 XVID AC3 - Xtreme Encode.avi
Format                                   : AVI
Format/Info                              : Audio Video Interleave
Format profile                           : OpenDML
Format settings                          : rec
File size                                : 1.43 GiB
Duration                                 : 1h 42mn
Overall bit rate                         : 2 004 Kbps





Video


ID                                       : 0
Format                                   : MPEG-4 Visual
Format profile                           : Advanced Simple@L5
Format settings, BVOP                    : 1
Format settings, QPel                    : No
Format settings, GMC                     : No warppoints
Format settings, Matrix                  : Default (H.263)
Codec ID                                 : XVID
Codec ID/Hint                            : XviD
Duration                                 : 1h 42mn
Bit rate                                 : 1 742 Kbps
Width                                    : 720 pixels
Height                                   : 384 pixels
Display aspect ratio                     : 1.875
Frame rate                               : 25.000 fps
Color space                              : YUV
Chroma subsampling                       : 4:2:0
Bit depth                                : 8 bits
Scan type                                : Progressive
Compression mode                         : Lossy
Bits/(Pixel*Frame)                       : 0.252
Stream size                              : 1.25 GiB (87%)




Audio


ID                                       : 1
Format                                   : AC-3
Format/Info                              : Audio Coding 3
Mode extension                           : CM (complete main)
Codec ID                                 : 2000
Duration                                 : 1h 42mn
Bit rate mode                            : Constant
Bit rate                                 : 256 Kbps
Channel(s)                               : 6 channels
Channel positions                        : Front: L C R, Side: L R, LFE
Sampling rate                            : 48.0 KHz
Bit depth                                : 16 bits
Compression mode                         : Lossy
Stream size                              : 188 MiB (13%)
Alignment                                : Aligned on interleaves
Interleave, duration                     : 64 ms (1.60 video frames)
Interleave, preload duration             : 192 ms






SOURCE
Video : DVD.ELEKTRI4KA
Audio : DVD.ELEKTRI4KA



JUST A LITTLE MESS WITH THIS ADDES BIT OF CONTRAS 
RESIZED BIT TWEAKED BIT SHARPEN in 
SAT HUE and few othere things 


LANGAUGE: ENGLISH 

SUBTITLES: NONE 




PLOT

A delightful romantic comedy about about a guardian angel 
who falls for the young woman he is protecting. 





Genres: Comedy | Romance  


Director: Paul Breuls

Writer: Kara Holden

Stars: Kelly Reilly, Julian Rhind-Tutt and Santiago Cabrera  


IMDB: http://www.imdb.com/title/tt1290140/